HIERARCHY
ROOT Root
{
	OFFSET 0.000000 0.000000 0.000000
	CHANNELS 6 Xposition Yposition Zposition Xrotation Yrotation Zrotation
	JOINT Pelvis_R
	{
		OFFSET 0.000000 0.000000 10.000000
		CHANNELS 3 Xrotation Yrotation Zrotation
		JOINT Thigh_R
		{
			OFFSET 0.000000 -0.000000 9.000000
			CHANNELS 3 Xrotation Yrotation Zrotation
			JOINT Shin_R
			{
				OFFSET 0.000000 -0.000002 50.000000
				CHANNELS 3 Xrotation Yrotation Zrotation
				JOINT Foot_R
				{
					OFFSET 0.000000 -0.000002 41.500004
					CHANNELS 3 Xrotation Yrotation Zrotation
					End Site
					{
						OFFSET 0.000000 -0.000001 18.499994
					}
				}
			}
		}
	}
	JOINT Pelvis_L
	{
		OFFSET 0.000000 0.000000 10.000000
		CHANNELS 3 Xrotation Yrotation Zrotation
		JOINT Thigh_L
		{
			OFFSET 0.000000 -0.000000 9.000000
			CHANNELS 3 Xrotation Yrotation Zrotation
			JOINT Shin_L
			{
				OFFSET 0.000000 -0.000002 50.000000
				CHANNELS 3 Xrotation Yrotation Zrotation
				JOINT Foot_L
				{
					OFFSET 0.000000 -0.000002 41.500004
					CHANNELS 3 Xrotation Yrotation Zrotation
					End Site
					{
						OFFSET 0.000000 -0.000001 18.499994
					}
				}
			}
		}
	}
	JOINT Spine
	{
		OFFSET 0.000000 0.000000 10.000000
		CHANNELS 3 Xrotation Yrotation Zrotation
		JOINT Neck
		{
			OFFSET 0.000000 -0.000002 52.499996
			CHANNELS 3 Xrotation Yrotation Zrotation
			JOINT Head
			{
				OFFSET 0.000000 -0.000001 16.500002
				CHANNELS 3 Xrotation Yrotation Zrotation
				End Site
				{
					OFFSET 0.000000 -0.000000 9.499997
				}
			}
		}
		JOINT Shoulder_R
		{
			OFFSET 0.000000 -0.000002 52.499996
			CHANNELS 3 Xrotation Yrotation Zrotation
			JOINT Upperarm_R
			{
				OFFSET 0.000000 -0.000001 16.500002
				CHANNELS 3 Xrotation Yrotation Zrotation
				JOINT Forearm_R
				{
					OFFSET 0.000000 -0.000001 25.999992
					CHANNELS 3 Xrotation Yrotation Zrotation
					JOINT Hand_R
					{
						OFFSET 0.000000 -0.000001 24.000000
						CHANNELS 3 Xrotation Yrotation Zrotation
						End Site
						{
							OFFSET 0.000000 -0.000000 7.500005
						}
					}
				}
			}
		}
		JOINT Shoulder_L
		{
			OFFSET 0.000000 -0.000002 52.499996
			CHANNELS 3 Xrotation Yrotation Zrotation
			JOINT Upperarm_L
			{
				OFFSET 0.000000 -0.000001 16.500002
				CHANNELS 3 Xrotation Yrotation Zrotation
				JOINT Forearm_L
				{
					OFFSET 0.000000 -0.000001 25.999992
					CHANNELS 3 Xrotation Yrotation Zrotation
					JOINT Hand_L
					{
						OFFSET 0.000000 -0.000001 24.000000
						CHANNELS 3 Xrotation Yrotation Zrotation
						End Site
						{
							OFFSET 0.000000 -0.000000 7.500005
						}
					}
				}
			}
		}
	}
}
MOTION
Frames: 10
Frame Time: 0.041667
-1.307857 101.877571 -0.004366 -0.000000 0.000000 -0.000000 -74.571404 -87.611943 -72.282082 -89.098028 2.244290 90.728934 19.981618 -1.258232 -0.462035 -53.368817 17.994591 32.259998 -74.571213 92.388055 76.886060 -91.541474 2.212559 -89.810171 20.442852 0.025820 0.250603 -46.569309 -5.510358 -9.709316 99.014643 -0.476808 0.558414 21.307192 2.102064 -3.935202 10.050761 2.969986 -5.641071 -43.182222 -92.015318 58.089284 -77.402190 -0.576363 80.780436 -56.975529 37.255567 103.604551 21.342579 18.536164 48.496771 -43.182484 87.984701 -53.636516 -78.867935 4.444844 -75.459698 -57.460585 -41.708461 -106.579433 17.513840 -25.004805 -48.961648 
-1.320913 101.914284 -0.004535 -0.000000 0.000000 -0.000000 -67.097552 -87.633328 -64.934786 -89.298023 2.718870 90.540346 20.178107 -1.407600 -0.526096 -52.826384 17.475259 30.564912 -67.097388 92.366670 69.295199 -91.013486 2.540337 -89.720006 20.550847 -0.579423 -0.045573 -46.239165 -4.247734 -7.617720 99.462205 -0.494774 0.584059 21.002997 2.434714 -4.534640 9.968769 3.392122 -6.433326 -38.238449 -91.905229 63.506136 -77.609630 -0.724768 80.819347 -57.089156 37.013864 103.777949 21.188077 18.075957 48.272710 -38.238954 88.094803 -58.996790 -78.873016 4.903545 -75.634653 -57.738089 -41.120461 -107.206847 17.354937 -24.604701 -49.109350 
-1.156050 101.828171 -0.004614 -0.000000 0.000000 -0.000000 -72.979909 -87.772473 -70.861970 -89.352685 2.997714 90.817508 20.176707 -1.093206 -0.304983 -53.185242 17.582821 30.465772 -72.979745 92.227525 75.121924 -91.059092 0.923533 -89.527873 20.266541 -0.118784 0.242137 -46.430731 -2.997675 -5.814813 100.392026 -0.583242 0.699926 20.310788 2.349741 -4.449455 9.860105 3.697461 -7.178959 -42.222980 -91.596272 60.249427 -78.010323 -1.125313 81.099385 -55.500488 36.134457 100.187605 20.899800 21.402999 52.805108 -42.222655 88.403719 -56.136802 -79.088195 5.000518 -75.978164 -57.342573 -40.511621 -106.510646 19.207737 -27.351988 -55.202436 
-1.098347 101.128220 -0.004655 -0.000000 0.000000 -0.000000 -75.612455 -87.961389 -73.646460 -89.530120 1.801931 90.980941 21.368539 -0.961280 -0.179490 -52.033798 18.470013 31.054599 -75.612202 92.038609 77.595662 -91.050458 1.157154 -89.538596 20.972828 0.504525 0.629063 -45.651318 -1.935539 -4.428810 100.769531 -0.648659 0.783666 19.926571 2.178346 -4.179108 9.537271 4.555120 -9.083031 -34.081763 -91.571199 68.938288 -77.619158 -0.891459 80.663612 -55.418700 36.498407 100.308616 20.436689 20.588483 50.660210 -34.081175 88.428813 -64.486220 -79.176427 4.299669 -76.099529 -57.551570 -42.888329 -107.815103 18.636733 -24.268482 -48.001388 
-1.232117 101.228699 -0.004609 -0.000000 0.000000 -0.000000 -74.217095 -87.261076 -71.598421 -88.807274 3.094420 90.651432 20.383846 -0.810876 -0.119518 -51.101078 17.614296 29.226601 -74.216815 92.738922 76.869763 -91.674560 2.478200 -89.702425 21.315834 0.593986 0.709329 -45.143947 -2.289967 -5.059063 100.155196 -0.570867 0.682205 20.620338 2.382957 -4.511395 9.559760 4.721329 -9.360674 -49.309004 -91.479783 52.696289 -78.091861 -0.937094 81.080650 -56.133507 36.939562 101.633427 20.843470 18.472598 47.895909 -49.309605 88.520228 -49.036448 -78.817535 3.421310 -75.843028 -57.310321 -42.980755 -106.708483 18.898558 -25.363190 -49.259628 
-1.515090 101.912476 -0.004118 -0.000000 0.000000 -0.000000 -47.951118 -87.800709 -46.338623 -89.827076 3.288507 90.025035 20.150945 -1.083050 -0.290252 -52.814776 17.542361 29.721442 -47.950944 92.199289 49.605437 -90.554901 1.054408 -90.363287 20.918916 0.099563 0.405675 -46.467006 -3.043366 -6.100459 100.329748 -0.407392 0.488357 20.580468 1.910267 -3.598949 10.067858 4.210004 -8.502267 -38.505331 -91.292158 63.465858 -78.145997 -1.122083 80.473685 -58.306081 36.646024 105.084817 21.619207 18.061990 49.318709 -38.505837 88.707888 -60.211061 -78.572789 4.194890 -76.245463 -61.195565 -42.530263 -114.589585 17.524833 -21.364827 -45.424907 
-1.584443 102.965858 -0.004832 -0.000000 0.000000 -0.000000 -72.416766 -87.760377 -70.294292 -89.247814 0.307906 90.656281 21.810543 -1.309765 -0.465368 -53.527431 19.753588 35.471747 -72.416637 92.239622 74.564328 -91.459805 0.835910 -89.931496 21.770852 0.529065 0.568082 -46.891817 -3.316934 -6.318588 98.444568 -0.492226 0.570696 21.155454 1.450883 -2.766912 9.985458 3.420137 -6.777155 -17.095963 -91.441186 83.358675 -78.168038 -0.661819 80.469512 -60.290551 36.088230 107.985755 25.115140 21.716452 59.465266 -17.095583 88.558860 -79.368458 -78.583239 4.799470 -76.280167 -62.804908 -41.848771 -117.263283 23.410497 -24.097382 -54.565084 
-0.946575 103.035927 -0.005096 -0.000000 0.000000 -0.000000 -99.621137 -89.189717 -98.821315 -89.533883 -0.871667 90.465548 20.459130 0.706460 0.611380 -52.806494 18.913424 33.704378 -99.620194 90.810275 100.418138 -90.241921 -5.368911 -89.318425 17.445492 0.377366 0.378110 -46.462102 -2.365079 -4.442706 97.632582 -0.651591 0.744731 23.259933 1.139020 -2.412347 10.554257 3.308266 -6.952281 -13.969555 -91.108030 85.522581 -78.225685 0.109809 80.471096 -63.742597 36.149562 113.231935 28.364031 26.169463 70.849429 -13.969448 88.891975 -81.830557 -78.634759 4.613770 -76.380803 -66.042329 -38.834598 -120.916382 26.643108 -22.970203 -60.129154 
-1.121691 101.308510 -0.003945 -0.000000 0.000000 -0.000000 -24.767545 -91.808131 -25.536107 -89.527142 -1.264875 90.432299 17.996065 2.596322 1.568688 -48.508304 20.869308 35.186030 -24.767709 88.191867 24.020862 -88.656573 -5.270808 -87.881572 17.821012 -1.072931 -0.603737 -42.793813 -4.037014 -5.414734 95.488264 -0.416762 0.458724 25.291936 0.250544 -0.715428 9.756494 2.159598 -4.657689 -64.129971 -91.695214 32.716678 -78.813928 1.171086 81.736642 -70.144513 38.983441 126.564430 30.615988 18.319221 63.367087 -64.130497 88.304797 -30.034381 -77.948263 2.704366 -75.035516 -78.083549 -42.318701 -144.008719 31.986876 -9.774266 -52.665263 
-1.306903 100.670830 -0.005368 -0.000000 0.000000 -0.000000 -48.032557 -88.706822 -47.078240 -89.077497 -0.428417 89.137616 22.668768 0.835782 0.577401 -53.042228 19.426972 33.368759 -48.031652 91.293190 49.000487 -89.724036 0.077036 -89.618571 22.869222 -1.929313 -0.842915 -47.702475 -3.564969 -5.216863 97.555981 -0.241427 0.275566 22.448778 0.266434 -0.604140 8.246980 1.059837 -2.136038 -7.200659 -90.725171 91.358507 -79.119067 -2.782354 80.168232 -76.549202 33.388768 144.348644 32.560581 10.402098 68.583295 -7.200247 89.274834 -89.358129 -76.843706 5.449113 -75.841860 -91.464484 -36.710723 -178.441889 24.221760 4.336280 -41.785345 
